# xmcd CD database file
#
# Track frame offsets:
#	150
#	16025
#	30405
#	47737
#	62987
#	77380
#	92295
#	109367
#	125320
#	144387
#
# Disc length: 2145 seconds
#
# Revision: 8
# Processed by: cddbd v1.5.2PL0 Copyright (c) Steve Scherf et al.
# Submitted via: CDex 1.70beta2
#
DISCID=70085f0a
DTITLE=Ray Charles - Just Between Us
DYEAR=1988
DGENRE=Soul/R&B
TTITLE0=Nothing Like A Hundred Miles (With B.B. King)
TTITLE1=I Wish I'd Never Loved You At All (With Gladys Knight)
TTITLE2=Too Hard To Love You (With Jim Johnson)
TTITLE3=Now I Don't Believe That Anymore
TTITLE4=Let's Call The Whole Thing Off
TTITLE5=Stranger In My Hometown (With Kenny Carr)
TTITLE6=Over The Top
TTITLE7=I'd Walk A Little More For You
TTITLE8=If That's What'cha Want
TTITLE9=Save The Bones For Henry Jones (With Lou Rawls and Milt Jackson)
EXTD=YEAR: 1988
EXTT0=
EXTT1=
EXTT2=
EXTT3=
EXTT4=
EXTT5=
EXTT6=
EXTT7=
EXTT8=
EXTT9=
PLAYORDER=
